# xmcd
#
# Track frame offsets: 
#        150
#        28115
#        50640
#        83487
#        106195
#        133135
#        175832
#        218337
#
# Disc length: 3289 seconds
#
# Revision: 1
# Processed by: cddbd v1.5.2PL0 Copyright (c) Steve Scherf et al.
# Submitted via: ExactAudioCopy v1.0b6
#
DISCID=610cd708
DTITLE=Ten City - Fantasy
DYEAR=1993
DGENRE=House
TTITLE0=Fantasy (Extended Mix)
TTITLE1=Fantasy (Demo Mix)
TTITLE2=Fantasy (Masters At Work 12")
TTITLE3=Fantasy (Herbie's Hub-A-Dub)
TTITLE4=Fantasy (Masters At Work Dub)
TTITLE5=Fantasy (Shelter 12" Mix)
TTITLE6=Fantasy (Shelter 4 A.M. Mix)
TTITLE7=Fantasy (Funky Ginger Mix)
EXTD=
EXTT0=
EXTT1=
EXTT2=
EXTT3=
EXTT4=
EXTT5=
EXTT6=
EXTT7=
PLAYORDER=
